<?xml version="1.0" standalone="no"?>
<!DOCTYPE svg PUBLIC "-//W3C//DTD SVG 20010904//EN"
 "http://www.w3.org/TR/2001/REC-SVG-20010904/DTD/svg10.dtd">
<svg version="1.0" xmlns="http://www.w3.org/2000/svg"
 width="256.000000pt" height="235.000000pt" viewBox="0 0 256.000000 235.000000"
 preserveAspectRatio="xMidYMid meet">

<g transform="translate(0.000000,235.000000) scale(0.100000,-0.100000)"
fill="#000000" stroke="none">
<path d="M2000 1963 c-262 -25 -488 -104 -602 -211 l-28 -26 0 -419 c0 -331 3
-418 13 -414 6 3 49 21 94 41 171 73 418 139 623 166 47 6 99 13 115 15 l31 5
-17 243 c-9 133 -22 324 -29 425 l-13 182 -76 -2 c-42 0 -92 -3 -111 -5z m84
-29 c3 -8 2 -12 -4 -9 -6 3 -10 -3 -10 -14 0 -11 -14 -45 -31 -75 -36 -67 -32
-74 7 -12 16 25 32 42 38 39 5 -3 6 -2 3 4 -4 6 1 19 9 29 9 10 12 12 9 4 -4
-8 5 0 20 18 14 17 30 32 34 32 5 0 11 -26 14 -57 5 -57 4 -59 -41 -118 l-46
-60 45 38 c42 36 44 37 47 16 3 -15 -10 -34 -45 -65 l-48 -44 45 29 c25 16 48
27 52 25 5 -3 8 -34 8 -69 0 -50 -4 -66 -17 -75 -17 -10 -16 -10 2 -8 21 3 21
5 26 -107 l3 -60 -30 3 c-16 2 -48 10 -72 18 -23 8 -52 14 -62 14 -16 0 -20 7
-20 36 l0 36 -59 -4 c-44 -3 -58 -1 -54 8 2 7 11 15 19 18 7 3 11 11 8 19 -3
8 5 18 18 25 18 8 19 11 6 11 -24 1 -23 10 4 38 l21 23 -22 0 -22 0 21 28 22
27 -28 3 c-16 1 -40 5 -53 8 -23 5 -23 5 -5 26 17 19 17 21 2 15 -10 -3 -56
-7 -104 -8 l-86 -2 -58 -56 c-55 -54 -90 -106 -90 -133 1 -7 7 -2 16 12 13 23
14 21 8 -35 -6 -53 -5 -58 8 -47 13 11 18 7 32 -25 14 -32 16 -33 13 -10 -2
15 0 27 4 27 5 0 9 -5 9 -12 0 -6 15 -24 33 -39 l32 -27 -23 -24 c-12 -14 -19
-27 -15 -31 3 -4 -1 -15 -9 -24 -23 -26 -71 -171 -64 -196 8 -32 -40 -126 -70
-137 -32 -13 -31 -13 -38 6 -3 8 -2 13 3 10 5 -3 11 1 15 9 13 35 -15 21 -48
-24 -20 -27 -45 -51 -56 -54 -18 -5 -20 0 -20 50 0 47 5 61 32 97 18 22 23 34
13 25 -59 -48 -53 -32 20 50 l30 35 -41 -32 c-53 -40 -71 -41 -24 -2 19 17 29
30 23 30 -6 0 -16 -7 -23 -15 -24 -29 -31 -14 -29 61 2 74 2 75 33 90 l31 14
-32 -5 -33 -4 0 74 c0 71 1 75 22 75 l22 0 -22 16 c-18 12 -22 25 -22 70 0 57
4 62 34 39 37 -28 36 -15 -2 21 l-37 36 45 -29 c75 -49 77 -48 18 13 -32 33
-58 64 -58 69 0 13 42 55 55 55 7 0 20 -9 30 -20 10 -11 21 -18 23 -15 3 3 17
-5 31 -17 l24 -23 -21 35 c-20 34 -22 39 -22 61 0 5 -4 7 -10 4 -5 -3 -7 0 -4
8 7 18 181 97 215 97 4 0 10 -12 12 -27 4 -27 4 -27 6 4 1 28 5 32 49 42 26 6
61 13 77 15 17 3 47 8 69 12 35 6 38 5 32 -12 -3 -10 -2 -25 3 -33 7 -11 10
-9 16 8 3 11 3 26 -1 32 -4 7 -3 10 2 7 5 -3 18 -2 29 3 34 13 72 10 79 -7z
m-585 -198 c-3 -3 -11 5 -18 17 -13 21 -12 21 5 5 10 -10 16 -20 13 -22z m683
-355 c19 -7 24 -17 26 -51 2 -24 3 -46 4 -49 5 -50 -2 -51 -52 -3 -49 46 -50
48 -39 80 12 34 22 38 61 23z m38 -222 c0 -6 -16 2 -35 17 -19 14 -35 28 -35
30 0 2 16 -6 35 -17 19 -12 35 -25 35 -30z"/>
<path d="M406 1919 c-6 -47 -46 -600 -46 -634 0 -20 9 -22 160 -33 265 -20
490 -66 650 -132 40 -17 76 -28 79 -24 3 3 8 147 9 319 l4 313 -53 42 c-146
116 -345 173 -648 186 l-149 7 -6 -44z m515 -54 c82 -29 139 -90 139 -149 0
-14 -13 -40 -29 -58 -27 -31 -28 -35 -15 -61 17 -32 11 -34 -23 -7 -22 17 -35
19 -87 14 -110 -11 -236 39 -272 107 -30 60 -1 120 76 153 45 20 156 20 211 1z
m-306 -35 c3 -5 1 -10 -4 -10 -6 0 -11 5 -11 10 0 6 2 10 4 10 3 0 8 -4 11
-10z m-170 -55 c-15 -14 -25 -28 -22 -31 3 -4 14 1 23 11 16 16 18 16 23 2 4
-12 10 -14 21 -7 8 5 20 10 25 10 6 -1 2 -5 -7 -11 -22 -12 -24 -33 -3 -25 12
4 14 0 9 -22 -8 -37 -37 -102 -46 -102 -5 0 -8 -26 -9 -57 0 -32 -4 -76 -8
-98 -8 -39 -9 -39 -10 -8 -1 26 -6 34 -27 39 -25 6 -25 9 -20 63 15 136 18
179 19 219 0 25 4 38 8 30 7 -10 12 -9 26 4 9 10 19 15 22 12 3 -2 -8 -16 -24
-29z m75 25 c0 -5 -2 -10 -4 -10 -3 0 -8 5 -11 10 -3 6 -1 10 4 10 6 0 11 -4
11 -10z m561 -47 c-12 -20 -14 -14 -5 12 4 9 9 14 11 11 3 -2 0 -13 -6 -23z
m83 -12 c-10 -10 -21 -17 -23 -15 -6 6 20 34 32 34 6 0 2 -8 -9 -19z m-559
-28 c49 -65 114 -113 154 -113 10 0 21 -3 25 -7 3 -4 22 -7 41 -8 18 0 36 -3
39 -6 4 -3 27 0 53 6 45 11 49 11 87 -17 21 -15 41 -26 43 -24 3 2 -3 18 -11
35 -21 40 -21 40 19 83 24 25 33 42 29 55 -5 14 -4 15 4 4 6 -8 17 -11 28 -7
15 6 14 3 -4 -17 -15 -16 -20 -27 -13 -32 6 -3 11 0 11 7 1 7 17 23 37 36 28
18 38 20 44 10 5 -7 7 -19 4 -26 -3 -7 2 -23 10 -36 9 -13 13 -32 9 -42 -5
-15 -4 -16 5 -4 20 29 24 2 22 -162 -1 -91 -2 -96 -21 -91 -12 3 -20 14 -20
27 -1 48 -52 71 -63 28 -3 -10 -5 1 -6 23 -1 22 -8 62 -15 90 -15 56 -11 63
-38 -78 -11 -56 -15 -66 -26 -55 -10 10 -15 10 -22 -2 -7 -11 -10 -4 -10 26 0
22 -6 52 -12 67 -14 29 -8 28 -113 12 -32 -6 -35 -9 -36 -43 -1 -20 -4 -48 -8
-61 -6 -21 -8 -22 -20 -8 -12 15 -15 14 -34 -4 l-22 -20 -3 40 c-3 42 -5 44
-67 53 -15 3 -20 11 -21 34 -1 41 -11 54 -41 54 -35 0 -52 -26 -53 -82 0 -29
-5 -48 -11 -48 -8 0 -10 26 -7 90 3 53 2 93 -4 96 -5 4 -7 17 -3 31 3 14 2 22
-4 19 -9 -6 -25 23 -16 32 2 3 11 -1 19 -8 13 -10 19 -9 32 4 9 10 13 20 9 24
-3 4 -11 -1 -16 -11 -6 -9 -15 -14 -21 -11 -7 5 -5 12 7 20 15 11 16 16 5 29
-7 8 -8 15 -4 15 5 0 18 -12 29 -27z m-35 3 c0 -2 -7 -9 -15 -16 -12 -10 -15
-10 -15 4 0 9 7 16 15 16 8 0 15 -2 15 -4z"/>
<path d="M445 1730 c-3 -5 -1 -10 4 -10 6 0 11 5 11 10 0 6 -2 10 -4 10 -3 0
-8 -4 -11 -10z"/>
<path d="M465 1711 c-3 -5 -1 -12 5 -16 5 -3 10 1 10 9 0 18 -6 21 -15 7z"/>
<path d="M420 1699 c0 -5 5 -7 10 -4 6 3 10 8 10 11 0 2 -4 4 -10 4 -5 0 -10
-5 -10 -11z"/>
<path d="M433 1675 c-19 -21 -16 -27 7 -13 11 7 20 16 20 20 0 12 -14 9 -27
-7z"/>
<path d="M1161 1703 c-7 -8 -11 -16 -8 -19 6 -7 37 7 37 16 0 16 -15 18 -29 3z"/>
<path d="M1170 1664 c0 -7 27 -34 34 -34 4 0 1 9 -6 20 -12 19 -28 27 -28 14z"/>
<path d="M327 1920 c-6 -13 -36 -393 -103 -1280 -14 -183 -20 -220 -38 -250
l-21 -35 -3 27 c-2 14 8 167 22 340 14 172 37 462 51 643 13 182 27 366 31
410 6 70 5 78 -8 67 -11 -9 -17 -46 -22 -145 -9 -175 -50 -731 -81 -1092 -14
-159 -25 -296 -25 -302 0 -7 10 -13 23 -13 17 0 19 -2 7 -10 -8 -5 -11 -12 -7
-16 4 -4 136 -11 295 -14 235 -6 305 -11 389 -29 168 -35 305 -90 353 -141 29
-31 91 -52 129 -44 50 11 82 27 92 46 16 30 148 87 274 118 150 38 268 50 498
50 l193 0 33 29 32 29 -20 274 c-24 308 -66 937 -77 1131 -6 110 -9 129 -25
138 -11 5 -19 20 -19 33 0 16 -7 26 -22 29 -12 4 -24 4 -26 2 -4 -4 16 -299
73 -1072 14 -183 25 -350 25 -371 l0 -39 -177 -6 c-260 -8 -453 -47 -621 -127
-94 -45 -158 -87 -207 -135 l-33 -34 3 797 c2 443 0 770 -5 737 -4 -33 -8
-283 -9 -556 -1 -273 -4 -603 -7 -735 l-6 -239 -58 56 c-66 64 -194 134 -313
173 -150 49 -277 68 -491 73 l-198 6 6 66 c6 66 19 223 76 960 29 371 34 487
17 451z m2013 -465 c28 -419 68 -989 74 -1049 l6 -50 -22 21 c-20 21 -22 41
-39 330 -10 169 -22 434 -28 588 -6 154 -13 330 -16 390 -8 198 4 86 25 -230z
m-1906 -1061 c36 -5 47 -4 42 4 -4 7 -1 12 9 12 9 0 14 -4 10 -9 -3 -5 3 -12
12 -14 10 -3 -18 -6 -62 -7 -44 -1 -119 -5 -167 -8 -68 -6 -84 -4 -76 5 6 7
13 11 17 9 3 -2 20 2 36 10 30 13 76 13 179 -2z m1937 -15 c10 -20 9 -21 -12
-16 -13 4 -93 7 -177 7 -109 0 -151 3 -146 11 3 6 19 9 35 5 16 -3 29 -1 29 4
0 6 52 10 130 10 122 0 130 -1 141 -21z m-1771 -29 c47 -5 55 -8 30 -10 l-35
-2 30 -8 c17 -4 -73 -7 -200 -7 -129 0 -206 3 -175 7 39 5 46 8 25 10 -28 3
-27 3 10 10 52 9 233 10 315 0z m1680 -1 c42 -1 49 -3 30 -9 -23 -6 -21 -8 15
-12 22 -3 -42 -5 -143 -6 -101 -1 -181 1 -179 6 3 4 -20 5 -51 4 -32 -2 -54
-1 -51 2 9 10 217 25 274 20 28 -2 75 -4 105 -5z m-413 -25 c-3 -3 -12 -4 -19
-1 -8 3 -5 6 6 6 11 1 17 -2 13 -5z"/>
<path d="M346 1099 c-11 -165 -35 -479 -41 -531 l-6 -48 108 0 c121 0 241 -12
351 -36 41 -9 75 -14 77 -12 8 9 75 662 68 669 -14 13 -281 49 -419 56 l-132
6 -6 -104z m66 50 c11 -18 22 -27 29 -23 8 4 9 3 5 -4 -9 -15 12 -54 24 -47 6
4 7 -1 3 -11 -4 -11 -2 -15 4 -11 6 4 14 0 17 -9 4 -9 9 -14 12 -11 3 3 -11
37 -31 77 l-37 72 59 -7 c60 -8 87 -10 161 -13 l42 -2 2 -42 1 -43 4 39 4 38
62 -7 c34 -3 65 -8 69 -11 4 -2 0 -21 -8 -40 -21 -51 -10 -54 16 -4 12 23 24
40 27 37 9 -10 -49 -97 -59 -90 -7 4 -8 1 -3 -7 6 -10 17 -3 42 26 30 35 33
36 29 14 -6 -30 -17 -120 -22 -175 -2 -22 -6 -58 -9 -81 -6 -42 -9 -71 -20
-187 -6 -61 -8 -67 -23 -56 -14 11 -15 11 -4 -1 6 -8 12 -28 12 -46 l0 -32
-37 10 c-21 6 -59 13 -85 15 -27 3 -48 8 -48 11 0 4 -46 9 -103 10 -56 2 -104
6 -106 8 -3 2 11 21 30 41 l34 37 -54 -42 c-30 -23 -57 -40 -60 -37 -3 4 1 10
9 15 8 6 10 10 4 10 -6 0 -17 -7 -24 -15 -20 -24 -50 -19 -50 9 0 16 11 31 33
46 17 12 23 19 12 15 -48 -17 -46 -14 15 20 62 34 53 38 -19 9 -18 -8 -36 -14
-38 -14 -10 0 8 64 20 72 9 6 9 8 0 8 -7 0 -13 9 -13 20 0 16 7 20 38 21 l37
2 -35 7 -35 7 45 3 45 3 -45 6 c-25 3 -45 8 -44 11 0 3 4 50 8 105 18 258 20
275 34 275 4 0 15 -14 24 -31z"/>
<path d="M691 1034 c0 -11 3 -14 6 -6 3 7 2 16 -1 19 -3 4 -6 -2 -5 -13z"/>
<path d="M803 1005 c0 -8 4 -12 9 -9 5 3 6 10 3 15 -9 13 -12 11 -12 -6z"/>
<path d="M960 1127 c0 -2 -16 -148 -35 -326 -19 -177 -35 -328 -35 -335 0 -8
23 -22 53 -32 75 -24 184 -80 243 -124 l51 -38 6 216 c4 120 7 290 7 380 l0
163 -47 20 c-80 35 -243 85 -243 76z m56 -111 c15 -16 18 -26 6 -26 -4 0 -13
9 -20 20 -14 23 -7 26 14 6z m119 -6 c3 -5 1 -10 -4 -10 -6 0 -11 5 -11 10 0
6 2 10 4 10 3 0 8 -4 11 -10z m-145 -7 c0 -5 11 -21 25 -37 21 -24 27 -27 40
-16 10 8 15 9 15 1 0 -6 -4 -11 -10 -11 -17 0 -11 -13 20 -50 16 -19 26 -37
23 -40 -3 -3 -8 1 -10 8 -5 13 -23 17 -23 4 0 -5 10 -19 22 -32 15 -16 18 -25
10 -28 -22 -7 -12 -28 37 -79 7 -7 10 -17 7 -21 -7 -6 -14 1 -36 38 -4 8 -12
12 -15 8 -4 -4 9 -30 30 -58 21 -28 35 -54 31 -57 -3 -4 -6 -2 -6 3 0 11 -45
64 -54 64 -11 0 -6 -17 12 -38 40 -48 49 -59 56 -72 4 -8 -17 11 -48 43 -31
33 -56 62 -56 65 -1 11 -91 105 -96 100 -2 -3 16 -26 41 -51 25 -26 44 -48 43
-49 -2 -2 27 -42 65 -89 73 -94 87 -121 33 -61 -19 20 -37 34 -40 31 -3 -3 5
-16 17 -29 30 -34 59 -80 50 -80 -5 1 -24 21 -43 45 -51 66 -58 55 -9 -12 24
-32 45 -60 48 -63 3 -3 13 -14 21 -25 14 -19 14 -19 -3 -6 -21 17 -35 7 -18
-13 9 -11 8 -15 -3 -19 -11 -4 -13 -1 -9 10 4 10 2 14 -5 9 -6 -3 -15 2 -21
11 -5 10 -13 14 -17 10 -5 -5 -2 -12 6 -17 29 -18 1 -20 -31 -2 -19 10 -63 29
-99 42 -36 13 -69 26 -73 30 -13 11 20 282 35 291 11 7 11 9 0 9 -9 0 -11 10
-7 33 8 40 13 86 14 112 1 14 4 16 13 7 8 -8 8 -15 -2 -27 -8 -10 -9 -15 -1
-15 6 0 11 5 11 10 0 6 7 10 15 10 8 0 14 -3 13 -7 -4 -11 9 -14 27 -7 17 7
21 34 5 34 -5 0 -10 -8 -10 -17 0 -13 -9 -8 -35 17 -34 35 -42 50 -27 50 5 0
15 -11 22 -25 7 -14 19 -25 27 -25 16 0 17 8 1 25 -23 23 -48 55 -48 60 0 3 5
5 10 5 6 0 10 -3 10 -7z m60 -33 c0 -5 -2 -10 -4 -10 -3 0 -8 5 -11 10 -3 6
-1 10 4 10 6 0 11 -4 11 -10z m85 -50 c3 -5 1 -10 -4 -10 -6 0 -11 5 -11 10 0
6 2 10 4 10 3 0 8 -4 11 -10z m-25 -20 c0 -5 -2 -10 -4 -10 -3 0 -8 5 -11 10
-3 6 -1 10 4 10 6 0 11 -4 11 -10z m50 -94 c0 -3 -4 -8 -10 -11 -5 -3 -10 -1
-10 4 0 6 5 11 10 11 6 0 10 -2 10 -4z m24 -192 c3 -8 2 -12 -4 -9 -6 3 -10
10 -10 16 0 14 7 11 14 -7z m26 -80 c0 -3 -7 -1 -15 6 -8 7 -15 17 -15 22 0 5
7 3 15 -6 8 -8 15 -18 15 -22z m-2 -189 c-3 -3 -9 2 -12 12 -6 14 -5 15 5 6 7
-7 10 -15 7 -18z"/>
<path d="M1040 873 c-10 -12 -11 -18 -2 -21 7 -2 12 -8 12 -14 0 -15 30 -41
38 -33 4 4 1 10 -5 12 -7 3 -13 11 -13 18 0 7 -6 16 -12 19 -10 5 -10 7 0 12
13 6 17 24 5 24 -5 -1 -15 -8 -23 -17z"/>
<path d="M971 854 c-7 -8 -10 -18 -6 -22 3 -3 10 0 15 8 5 8 12 11 16 7 4 -3
1 -13 -6 -22 -16 -19 -3 -20 16 0 14 13 14 17 0 30 -18 18 -18 18 -35 -1z"/>
<path d="M1025 821 c-3 -5 -1 -12 5 -16 5 -3 10 1 10 9 0 18 -6 21 -15 7z"/>
<path d="M1016 778 c35 -41 63 -68 70 -68 3 0 1 7 -7 16 -10 13 -10 17 1 24
10 6 8 13 -9 31 -11 12 -21 18 -21 13 0 -6 5 -15 12 -22 6 -6 9 -14 5 -18 -3
-3 -17 6 -30 20 -29 31 -48 35 -21 4z"/>
<path d="M965 740 c3 -5 8 -10 11 -10 2 0 4 5 4 10 0 6 -5 10 -11 10 -5 0 -7
-4 -4 -10z"/>
<path d="M1037 658 c11 -13 29 -34 41 -47 12 -14 22 -20 22 -15 0 12 -65 84
-76 84 -4 0 2 -10 13 -22z"/>
<path d="M1040 610 c0 -5 5 -10 11 -10 5 0 7 5 4 10 -3 6 -8 10 -11 10 -2 0
-4 -4 -4 -10z"/>
<path d="M1060 580 c0 -5 5 -10 10 -10 6 0 10 5 10 10 0 6 -4 10 -10 10 -5 0
-10 -4 -10 -10z"/>
<path d="M1040 567 c0 -4 20 -32 44 -61 24 -30 49 -63 54 -73 6 -10 14 -15 17
-11 4 4 1 14 -6 22 -8 9 -25 29 -39 47 -49 61 -70 84 -70 76z"/>
<path d="M2094 1045 c-213 -32 -493 -110 -656 -184 l-68 -30 0 -281 0 -280 49
35 c154 111 433 188 729 202 l132 6 0 36 c0 20 -7 133 -15 251 -8 118 -15 225
-15 238 0 26 -16 27 -156 7z m-34 -144 c0 -36 31 -61 74 -61 l30 0 -27 -28
c-30 -32 -35 -63 -11 -82 13 -12 11 -15 -17 -27 -29 -12 -31 -16 -26 -49 5
-31 4 -35 -11 -28 -56 24 -110 12 -125 -28 -3 -10 -9 -9 -24 4 -26 24 -43 23
-87 -7 -45 -31 -46 -31 -46 0 0 27 -32 50 -57 41 -11 -5 -13 -2 -8 11 30 72
30 72 8 101 l-21 29 31 14 c28 12 32 20 35 57 3 36 6 43 20 37 59 -24 77 -25
104 -5 16 12 29 16 33 10 10 -17 40 -11 76 14 45 32 49 31 49 -3z m-330 -171
c0 -5 -7 -10 -16 -10 -8 0 -12 5 -9 10 3 6 10 10 16 10 5 0 9 -4 9 -10z"/>
</g>
</svg>
